<svg width="16" height="16" viewBox="0 0 16 16" fill="currentColor" xmlns="http://www.w3.org/2000/svg">
<path d="M7.94444 15.2991C5.73765 15.2991 3.86188 14.5554 2.31713 13.068C0.772377 11.5806 0 9.77441 0 7.64954C0 5.52467 0.772377 3.71853 2.31713 2.23112C3.86188 0.743705 5.73765 0 7.94444 0C8.15041 0 8.35285 0.00708299 8.55175 0.0212488C8.75007 0.0354146 8.94485 0.0566632 9.13611 0.0849948C8.53292 0.495803 8.05125 1.03042 7.6911 1.68885C7.33037 2.34784 7.15 3.05982 7.15 3.82477C7.15 5.09969 7.61342 6.18338 8.54028 7.07582C9.46713 7.96827 10.5926 8.41449 11.9167 8.41449C12.7258 8.41449 13.4688 8.24082 14.1455 7.89347C14.8223 7.5467 15.374 7.08291 15.8006 6.50211C15.83 6.68626 15.8521 6.87382 15.8668 7.06477C15.8815 7.2563 15.8889 7.45122 15.8889 7.64954C15.8889 9.77441 15.1165 11.5806 13.5718 13.068C12.027 14.5554 10.1512 15.2991 7.94444 15.2991ZM7.94444 13.5992C9.23909 13.5992 10.4013 13.2558 11.4312 12.569C12.461 11.8817 13.2113 10.9856 13.6821 9.88066C13.3879 9.95148 13.0936 10.0081 12.7994 10.0506C12.5051 10.0931 12.2109 10.1144 11.9167 10.1144C10.1071 10.1144 8.56588 9.50186 7.293 8.2768C6.02071 7.05118 5.38457 5.56716 5.38457 3.82477C5.38457 3.54145 5.40664 3.25814 5.45077 2.97482C5.49491 2.6915 5.55375 2.40819 5.62731 2.12487C4.47978 2.57818 3.5494 3.30063 2.83617 4.29224C2.12234 5.28385 1.76543 6.40295 1.76543 7.64954C1.76543 9.29277 2.36862 10.6952 3.575 11.8568C4.78138 13.0184 6.23786 13.5992 7.94444 13.5992Z" fill="currentColor"/>
</svg>
